# xmcd CD database file
#
# Track frame offsets:
#	150
#	15651
#	30438
#	46667
#	60795
#	74083
#	89547
#	104773
#	120118
#	135493
#	151857
#	169582
#	183234
#	204509
#	219020
#	234165
#	247168
#	266381
#	284074
#	299680
#	316241
#
# Disc length: 4341 seconds
#
# Revision: 1
# Processed by: cddbd v1.5.2PL0 Copyright (c) Steve Scherf et al.
# Submitted via: CDex 1.70beta2
#
DISCID=2010f315
DTITLE=Various Artist - NU COUNTRY TRAXX 180
DYEAR=2014
DGENRE=Country
TTITLE0=Hope You Get Lonely Tonight - Cole Swindell
TTITLE1=Keep It To Yourself - Kacey Musgraves
TTITLE2=Night That You'll Never Forget - Love And Theft
TTITLE3=Bright Side - Allison Veltz
TTITLE4=Sunshine And Whiskey - Frankie Ballard
TTITLE5=Rum - Brothers Osborne
TTITLE6=I Wish I Could Break Your Heart - Cassadee Pope
TTITLE7=What I Can't Put Down - Jon Pardi
TTITLE8=Where It's At - Dustin Lynch
TTITLE9=Crazy Love - George Canyon
TTITLE10=Kiss Me When I Am Down - Ryan Kinder
TTITLE11=Lookatchu - Joe Bachman
TTITLE12=Two Beers Better - Jimmy White 
TTITLE13=Famous [Alternate Version] - Kelleigh Bannen
TTITLE14=Till Your Boots Are Dirty - Stacy Burk
TTITLE15=Bad Boy - Carissa Leigh
TTITLE16=Hey Brother - Avicii
TTITLE17=Take The L Out of Lover - Jeremy Phifer
TTITLE18=Cat Man Boogie - Jerry D. Hobbs
TTITLE19=We'll Get By (The Autism Song) - Johnny Orr
TTITLE20=Teardrop Tattoo - The Lovelocks
EXTD=YEAR: 2014
EXTT0=
EXTT1=
EXTT2=
EXTT3=
EXTT4=
EXTT5=
EXTT6=
EXTT7=
EXTT8=
EXTT9=
EXTT10=
EXTT11=
EXTT12=
EXTT13=
EXTT14=
EXTT15=
EXTT16=
EXTT17=
EXTT18=
EXTT19=
EXTT20=
PLAYORDER=
